<svg xmlns="http://www.w3.org/2000/svg" style="display:none;">

  <symbol id="suitcase" viewBox="0 0 24 24">
    <g fill="none" fill-rule="evenodd"><path d="m12.594 23.258l-.012.002l-.071.035l-.02.004l-.014-.004l-.071-.036c-.01-.003-.019 0-.024.006l-.004.01l-.017.428l.005.02l.01.013l.104.074l.015.004l.012-.004l.104-.074l.012-.016l.004-.017l-.017-.427c-.002-.01-.009-.017-.016-.018m.264-.113l-.014.002l-.184.093l-.01.01l-.003.011l.018.43l.005.012l.008.008l.201.092c.012.004.023 0 .029-.008l.004-.014l-.034-.614c-.003-.012-.01-.02-.02-.022m-.715.002a.023.023 0 0 0-.027.006l-.006.014l-.034.614c0 .012.007.02.017.024l.015-.002l.201-.093l.01-.008l.003-.011l.018-.43l-.003-.012l-.01-.01z"/><path fill="currentColor" d="M10 4a3 3 0 0 0-3 3H4a2 2 0 0 0-2 2v10a2 2 0 0 0 2 2h16a2 2 0 0 0 2-2V9a2 2 0 0 0-2-2h-3a3 3 0 0 0-3-3zm0 2a1 1 0 0 0-1 1h6a1 1 0 0 0-1-1zm10 3v4H4V9zM4 15v4h16v-4z"/></g>
  </symbol>

  <symbol id="phone" viewBox="0 0 24 24">
    <g fill="none" fill-rule="evenodd"><path d="M24 0v24H0V0zM12.593 23.258l-.011.002l-.071.035l-.02.004l-.014-.004l-.071-.035c-.01-.004-.019-.001-.024.005l-.004.01l-.017.428l.005.02l.01.013l.104.074l.015.004l.012-.004l.104-.074l.012-.016l.004-.017l-.017-.427c-.002-.01-.009-.017-.017-.018m.265-.113l-.013.002l-.185.093l-.01.01l-.003.011l.018.43l.005.012l.008.007l.201.093c.012.004.023 0 .029-.008l.004-.014l-.034-.614c-.003-.012-.01-.02-.02-.022m-.715.002a.023.023 0 0 0-.027.006l-.006.014l-.034.614c0 .012.007.02.017.024l.015-.002l.201-.093l.01-.008l.004-.011l.017-.43l-.003-.012l-.01-.01z"/><path fill="currentColor" d="M8.172 15.829c3.845 3.845 7.408 4.266 8.454 4.305c1.264.046 2.554-.986 3.112-2.043c-.89-1.044-2.049-1.854-3.318-2.732c-.749.748-1.672 2.138-2.901 1.64c-.699-.281-2.425-1.076-3.933-2.585C8.077 12.906 7.283 11.18 7 10.482c-.498-1.231.896-2.156 1.645-2.905c-.878-1.29-1.674-2.479-2.716-3.324c-1.072.56-2.11 1.84-2.063 3.121c.039 1.046.46 4.609 4.306 8.455m8.38 6.304c-1.44-.053-5.521-.617-9.795-4.89c-4.273-4.274-4.836-8.354-4.89-9.795c-.08-2.196 1.602-4.329 3.545-5.162a1.47 1.47 0 0 1 1.445.159c1.608 1.173 2.717 2.95 3.67 4.342A1.504 1.504 0 0 1 10.35 8.7l-1.356 1.357C9.309 10.752 9.95 11.95 11 13c1.05 1.05 2.248 1.691 2.944 2.006l1.355-1.356a1.503 1.503 0 0 1 1.918-.171c1.42.984 3.088 2.077 4.304 3.634a1.47 1.47 0 0 1 .189 1.485c-.837 1.953-2.955 3.616-5.158 3.535"/></g>
  </symbol>

  <symbol id="whatsapp" viewBox="0 0 24 24">
    <g fill="none"><path d="M24 0v24H0V0zM12.593 23.258l-.011.002l-.071.035l-.02.004l-.014-.004l-.071-.035c-.01-.004-.019-.001-.024.005l-.004.01l-.017.428l.005.02l.01.013l.104.074l.015.004l.012-.004l.104-.074l.012-.016l.004-.017l-.017-.427c-.002-.01-.009-.017-.017-.018m.265-.113l-.013.002l-.185.093l-.01.01l-.003.011l.018.43l.005.012l.008.007l.201.093c.012.004.023 0 .029-.008l.004-.014l-.034-.614c-.003-.012-.01-.02-.02-.022m-.715.002a.023.023 0 0 0-.027.006l-.006.014l-.034.614c0 .012.007.02.017.024l.015-.002l.201-.093l.01-.008l.004-.011l.017-.43l-.003-.012l-.01-.01z"/><path fill="currentColor" d="M12 2c5.523 0 10 4.477 10 10s-4.477 10-10 10a9.958 9.958 0 0 1-4.863-1.26l-.305-.178l-3.032.892a1.01 1.01 0 0 1-1.28-1.145l.026-.109l.892-3.032A9.958 9.958 0 0 1 2 12C2 6.477 6.477 2 12 2m0 2a8 8 0 0 0-6.759 12.282c.198.312.283.696.216 1.077l-.039.163l-.441 1.501l1.501-.441c.433-.128.883-.05 1.24.177A8 8 0 1 0 12 4M9.102 7.184a.695.695 0 0 1 .684.075c.504.368.904.862 1.248 1.344l.327.474l.153.225a.712.712 0 0 1-.046.864l-.075.076l-.924.686a.227.227 0 0 0-.067.291c.21.38.581.947 1.007 1.373c.427.426 1.02.822 1.426 1.055c.088.05.194.034.266-.031l.038-.045l.601-.915a.711.711 0 0 1 .973-.158l.543.379c.54.385 1.059.799 1.47 1.324a.696.696 0 0 1 .089.703c-.396.924-1.399 1.711-2.441 1.673l-.159-.01l-.191-.018a4.966 4.966 0 0 1-.108-.014l-.238-.04c-.924-.174-2.405-.698-3.94-2.232c-1.534-1.535-2.058-3.016-2.232-3.94l-.04-.238l-.025-.208l-.013-.175a3.76 3.76 0 0 1-.004-.075c-.038-1.044.753-2.047 1.678-2.443"/></g>
  </symbol>

  <symbol id="telegram" viewBox="0 0 24 24">
    <g fill="none" fill-rule="evenodd"><path d="M24 0v24H0V0zM12.593 23.258l-.011.002l-.071.035l-.02.004l-.014-.004l-.071-.035c-.01-.004-.019-.001-.024.005l-.004.01l-.017.428l.005.02l.01.013l.104.074l.015.004l.012-.004l.104-.074l.012-.016l.004-.017l-.017-.427c-.002-.01-.009-.017-.017-.018m.265-.113l-.013.002l-.185.093l-.01.01l-.003.011l.018.43l.005.012l.008.007l.201.093c.012.004.023 0 .029-.008l.004-.014l-.034-.614c-.003-.012-.01-.02-.02-.022m-.715.002a.023.023 0 0 0-.027.006l-.006.014l-.034.614c0 .012.007.02.017.024l.015-.002l.201-.093l.01-.008l.004-.011l.017-.43l-.003-.012l-.01-.01z"/><path fill="currentColor" d="M21.84 6.056a1.5 1.5 0 0 0-2.063-1.626l-17.1 7.2c-1.192.502-1.253 2.226 0 2.746a56.46 56.46 0 0 0 3.774 1.418c1.168.386 2.442.743 3.463.844c.279.334.63.656.988.95c.547.45 1.205.913 1.885 1.357c1.362.89 2.873 1.741 3.891 2.295c1.217.66 2.674-.1 2.892-1.427zM4.594 12.993l15.124-6.368l-2.118 12.84c-.999-.543-2.438-1.356-3.72-2.194a19.982 19.982 0 0 1-1.709-1.229a7.962 7.962 0 0 1-.426-.374l3.961-3.96a1 1 0 0 0-1.414-1.415L9.955 14.63c-.734-.094-1.756-.366-2.878-.736a48.89 48.89 0 0 1-2.482-.902Z"/></g>
  </symbol>

  <symbol id="mail" viewBox="0 0 24 24">
    <g fill="none"><path d="M24 0v24H0V0zM12.593 23.258l-.011.002l-.071.035l-.02.004l-.014-.004l-.071-.035c-.01-.004-.019-.001-.024.005l-.004.01l-.017.428l.005.02l.01.013l.104.074l.015.004l.012-.004l.104-.074l.012-.016l.004-.017l-.017-.427c-.002-.01-.009-.017-.017-.018m.265-.113l-.013.002l-.185.093l-.01.01l-.003.011l.018.43l.005.012l.008.007l.201.093c.012.004.023 0 .029-.008l.004-.014l-.034-.614c-.003-.012-.01-.02-.02-.022m-.715.002a.023.023 0 0 0-.027.006l-.006.014l-.034.614c0 .012.007.02.017.024l.015-.002l.201-.093l.01-.008l.004-.011l.017-.43l-.003-.012l-.01-.01z"/><path fill="currentColor" d="M20 4a2 2 0 0 1 1.995 1.85L22 6v12a2 2 0 0 1-1.85 1.995L20 20H4a2 2 0 0 1-1.995-1.85L2 18V6a2 2 0 0 1 1.85-1.995L4 4zm0 3.414l-6.94 6.94a1.5 1.5 0 0 1-2.12 0L4 7.414V18h16zM18.586 6H5.414L12 12.586z"/></g>
  </symbol>

  <symbol id="map" viewBox="0 0 24 24">
    <g fill="none" fill-rule="evenodd"><path d="M24 0v24H0V0zM12.593 23.258l-.011.002l-.071.035l-.02.004l-.014-.004l-.071-.035c-.01-.004-.019-.001-.024.005l-.004.01l-.017.428l.005.02l.01.013l.104.074l.015.004l.012-.004l.104-.074l.012-.016l.004-.017l-.017-.427c-.002-.01-.009-.017-.017-.018m.265-.113l-.013.002l-.185.093l-.01.01l-.003.011l.018.43l.005.012l.008.007l.201.093c.012.004.023 0 .029-.008l.004-.014l-.034-.614c-.003-.012-.01-.02-.02-.022m-.715.002a.023.023 0 0 0-.027.006l-.006.014l-.034.614c0 .012.007.02.017.024l.015-.002l.201-.093l.01-.008l.004-.011l.017-.43l-.003-.012l-.01-.01z"/><path fill="currentColor" d="M12 2a9 9 0 0 1 9 9c0 3.074-1.676 5.59-3.442 7.395a20.441 20.441 0 0 1-2.876 2.416l-.426.29l-.2.133l-.377.24l-.336.205l-.416.242a1.874 1.874 0 0 1-1.854 0l-.416-.242l-.52-.32l-.192-.125l-.41-.273a20.638 20.638 0 0 1-3.093-2.566C4.676 16.589 3 14.074 3 11a9 9 0 0 1 9-9m0 2a7 7 0 0 0-7 7c0 2.322 1.272 4.36 2.871 5.996a18.03 18.03 0 0 0 2.222 1.91l.458.326c.148.103.29.199.427.288l.39.25l.343.209l.289.169l.455-.269l.367-.23c.195-.124.405-.263.627-.417l.458-.326a18.03 18.03 0 0 0 2.222-1.91C17.728 15.361 19 13.322 19 11a7 7 0 0 0-7-7m0 3a4 4 0 1 1 0 8a4 4 0 0 1 0-8m0 2a2 2 0 1 0 0 4a2 2 0 0 0 0-4"/></g>
  </symbol>

  <symbol id="sun" viewBox="0 0 24 24">
    <g fill="none"><path d="M24 0v24H0V0zM12.593 23.258l-.011.002l-.071.035l-.02.004l-.014-.004l-.071-.035c-.01-.004-.019-.001-.024.005l-.004.01l-.017.428l.005.02l.01.013l.104.074l.015.004l.012-.004l.104-.074l.012-.016l.004-.017l-.017-.427c-.002-.01-.009-.017-.017-.018m.265-.113l-.013.002l-.185.093l-.01.01l-.003.011l.018.43l.005.012l.008.007l.201.093c.012.004.023 0 .029-.008l.004-.014l-.034-.614c-.003-.012-.01-.02-.02-.022m-.715.002a.023.023 0 0 0-.027.006l-.006.014l-.034.614c0 .012.007.02.017.024l.015-.002l.201-.093l.01-.008l.004-.011l.017-.43l-.003-.012l-.01-.01z"/><path fill="currentColor" d="M12 19a1 1 0 0 1 1 1v1a1 1 0 1 1-2 0v-1a1 1 0 0 1 1-1m6.364-2.05l.707.707a1 1 0 0 1-1.414 1.414l-.707-.707a1 1 0 0 1 1.414-1.414m-12.728 0a1 1 0 0 1 1.497 1.32l-.083.094l-.707.707a1 1 0 0 1-1.497-1.32l.083-.094zM12 6a6 6 0 1 1 0 12a6 6 0 0 1 0-12m0 2a4 4 0 1 0 0 8a4 4 0 0 0 0-8m-8 3a1 1 0 0 1 .117 1.993L4 13H3a1 1 0 0 1-.117-1.993L3 11zm17 0a1 1 0 1 1 0 2h-1a1 1 0 1 1 0-2zM4.929 4.929a1 1 0 0 1 1.32-.083l.094.083l.707.707a1 1 0 0 1-1.32 1.497l-.094-.083l-.707-.707a1 1 0 0 1 0-1.414m14.142 0a1 1 0 0 1 0 1.414l-.707.707a1 1 0 1 1-1.414-1.414l.707-.707a1 1 0 0 1 1.414 0M12 2a1 1 0 0 1 1 1v1a1 1 0 1 1-2 0V3a1 1 0 0 1 1-1"/></g>
  </symbol>

  <symbol id="cloud" viewBox="0 0 24 24">
    <g fill="none" fill-rule="evenodd"><path d="M24 0v24H0V0zM12.593 23.258l-.011.002l-.071.035l-.02.004l-.014-.004l-.071-.035c-.01-.004-.019-.001-.024.005l-.004.01l-.017.428l.005.02l.01.013l.104.074l.015.004l.012-.004l.104-.074l.012-.016l.004-.017l-.017-.427c-.002-.01-.009-.017-.017-.018m.265-.113l-.013.002l-.185.093l-.01.01l-.003.011l.018.43l.005.012l.008.007l.201.093c.012.004.023 0 .029-.008l.004-.014l-.034-.614c-.003-.012-.01-.02-.02-.022m-.715.002a.023.023 0 0 0-.027.006l-.006.014l-.034.614c0 .012.007.02.017.024l.015-.002l.201-.093l.01-.008l.004-.011l.017-.43l-.003-.012l-.01-.01z"/><path fill="currentColor" d="M5 10.416a6.5 6.5 0 0 1 12.586-2.204A6.002 6.002 0 0 1 16 20H7a5 5 0 0 1-2-9.584M11.5 6a4.5 4.5 0 0 0-4.473 5a1.01 1.01 0 0 1-.758 1.09A3.002 3.002 0 0 0 7 18h9a4 4 0 0 0 .655-7.947a1.01 1.01 0 0 1-.81-.732A4.502 4.502 0 0 0 11.5 6"/></g>
  </symbol>

  <symbol id="moon" viewBox="0 0 24 24">
    <g fill="none" fill-rule="evenodd"><path d="M24 0v24H0V0zM12.593 23.258l-.011.002l-.071.035l-.02.004l-.014-.004l-.071-.035c-.01-.004-.019-.001-.024.005l-.004.01l-.017.428l.005.02l.01.013l.104.074l.015.004l.012-.004l.104-.074l.012-.016l.004-.017l-.017-.427c-.002-.01-.009-.017-.017-.018m.265-.113l-.013.002l-.185.093l-.01.01l-.003.011l.018.43l.005.012l.008.007l.201.093c.012.004.023 0 .029-.008l.004-.014l-.034-.614c-.003-.012-.01-.02-.02-.022m-.715.002a.023.023 0 0 0-.027.006l-.006.014l-.034.614c0 .012.007.02.017.024l.015-.002l.201-.093l.01-.008l.004-.011l.017-.43l-.003-.012l-.01-.01z"/><path fill="currentColor" d="M12.477 4.546a1.01 1.01 0 0 1 1.097-1.409A9 9 0 0 1 12 21c-4.434 0-8.118-3.206-8.863-7.426a1.01 1.01 0 0 1 1.409-1.097a6 6 0 0 0 7.931-7.931m2.404 1.072a8 8 0 0 1-9.263 9.263A7.002 7.002 0 0 0 19 12.001a7.002 7.002 0 0 0-4.12-6.383ZM5.565 7.716l.064.14a3.26 3.26 0 0 0 1.237 1.363l.1.059a.068.068 0 0 1 0 .118l-.1.058a3.26 3.26 0 0 0-1.237 1.364l-.064.14a.071.071 0 0 1-.13 0l-.064-.14a3.26 3.26 0 0 0-1.237-1.364l-.1-.058a.068.068 0 0 1 0-.118l.1-.059A3.26 3.26 0 0 0 5.37 7.855l.064-.14a.071.071 0 0 1 .13 0Zm2.832-4.859c.04-.09.166-.09.206 0l.102.222a5.189 5.189 0 0 0 1.97 2.172l.157.092a.108.108 0 0 1 0 .189l-.158.092a5.189 5.189 0 0 0-2.07 2.394a.113.113 0 0 1-.207 0l-.102-.222a5.189 5.189 0 0 0-1.97-2.172l-.158-.092a.108.108 0 0 1 0-.189l.158-.092a5.189 5.189 0 0 0 1.97-2.172z"/></g>
  </symbol>

  <symbol id="" viewBox="0 0 24 24">
  </symbol>

  <symbol id="" viewBox="0 0 24 24">
  </symbol>

  <symbol id="" viewBox="0 0 24 24">
  </symbol>

  <symbol id="" viewBox="0 0 24 24">
  </symbol>

  <symbol id="" viewBox="0 0 24 24">
  </symbol>

  <symbol id="" viewBox="0 0 24 24">
  </symbol>

  <symbol id="" viewBox="0 0 24 24">
  </symbol>

  <symbol id="" viewBox="0 0 24 24">
  </symbol>

  <symbol id="" viewBox="0 0 24 24">
  </symbol>

  <symbol id="" viewBox="0 0 24 24">
  </symbol>

  <symbol id="" viewBox="0 0 24 24">
  </symbol>

  <symbol id="" viewBox="0 0 24 24">
  </symbol>

  <symbol id="" viewBox="0 0 24 24">
  </symbol>

  <symbol id="" viewBox="0 0 24 24">
  </symbol>

  <symbol id="" viewBox="0 0 24 24">
  </symbol>

  <symbol id="" viewBox="0 0 24 24">
  </symbol>

  <symbol id="" viewBox="0 0 24 24">
  </symbol>

  <symbol id="" viewBox="0 0 24 24">
  </symbol>

  <symbol id="" viewBox="0 0 24 24">
  </symbol>

  <symbol id="" viewBox="0 0 24 24">
  </symbol>

  <symbol id="" viewBox="0 0 24 24">
  </symbol>

  <symbol id="" viewBox="0 0 24 24">
  </symbol>

  <symbol id="" viewBox="0 0 24 24">
  </symbol>

  <symbol id="" viewBox="0 0 24 24">
  </symbol>

  <symbol id="" viewBox="0 0 24 24">
  </symbol>

  <symbol id="" viewBox="0 0 24 24">
  </symbol>

  <symbol id="" viewBox="0 0 24 24">
  </symbol>

</svg>
