<svg xmlns="http://www.w3.org/2000/svg" style="display:none;">
  <symbol id="suitcase" viewBox="0 0 24 24" fill="inherit">
    <path d="M19 6h-3V5a2 2 0 0 0-2-2h-4a2 2 0 0 0-2 2v1H5a3 3 0 0 0-3 3v9a3 3 0 0 0 3 3h14a3 3 0 0 0 3-3V9a3 3 0 0 0-3-3Zm-9-1h4v1h-4Zm10 13a1 1 0 0 1-1 1H5a1 1 0 0 1-1-1v-5.61L8.68 14A1.19 1.19 0 0 0 9 14h6a1.19 1.19 0 0 0 .32-.05L20 12.39Zm0-7.72L14.84 12H9.16L4 10.28V9a1 1 0 0 1 1-1h14a1 1 0 0 1 1 1Z"/>
  </symbol>

  <symbol id="phone" viewBox="0 0 24 24" fill="inherit">
    <path d="M19.44 13c-.22 0-.45-.07-.67-.12a9.44 9.44 0 0 1-1.31-.39a2 2 0 0 0-2.48 1l-.22.45a12.18 12.18 0 0 1-2.66-2a12.18 12.18 0 0 1-2-2.66l.42-.28a2 2 0 0 0 1-2.48a10.33 10.33 0 0 1-.39-1.31c-.05-.22-.09-.45-.12-.68a3 3 0 0 0-3-2.49h-3a3 3 0 0 0-3 3.41a19 19 0 0 0 16.52 16.46h.38a3 3 0 0 0 2-.76a3 3 0 0 0 1-2.25v-3a3 3 0 0 0-2.47-2.9Zm.5 6a1 1 0 0 1-.34.75a1.05 1.05 0 0 1-.82.25A17 17 0 0 1 4.07 5.22a1.09 1.09 0 0 1 .25-.82a1 1 0 0 1 .75-.34h3a1 1 0 0 1 1 .79q.06.41.15.81a11.12 11.12 0 0 0 .46 1.55l-1.4.65a1 1 0 0 0-.49 1.33a14.49 14.49 0 0 0 7 7a1 1 0 0 0 .76 0a1 1 0 0 0 .57-.52l.62-1.4a13.69 13.69 0 0 0 1.58.46q.4.09.81.15a1 1 0 0 1 .79 1Z"/>
  </symbol>

  <symbol id="whatsapp" viewBox="0 0 24 24" fill="inherit">
    <path d="M16.6 14c-.2-.1-1.5-.7-1.7-.8c-.2-.1-.4-.1-.6.1c-.2.2-.6.8-.8 1c-.1.2-.3.2-.5.1c-.7-.3-1.4-.7-2-1.2c-.5-.5-1-1.1-1.4-1.7c-.1-.2 0-.4.1-.5c.1-.1.2-.3.4-.4c.1-.1.2-.3.2-.4c.1-.1.1-.3 0-.4c-.1-.1-.6-1.3-.8-1.8c-.1-.7-.3-.7-.5-.7h-.5c-.2 0-.5.2-.6.3c-.6.6-.9 1.3-.9 2.1c.1.9.4 1.8 1 2.6c1.1 1.6 2.5 2.9 4.2 3.7c.5.2.9.4 1.4.5c.5.2 1 .2 1.6.1c.7-.1 1.3-.6 1.7-1.2c.2-.4.2-.8.1-1.2l-.4-.2m2.5-9.1C15.2 1 8.9 1 5 4.9c-3.2 3.2-3.8 8.1-1.6 12L2 22l5.3-1.4c1.5.8 3.1 1.2 4.7 1.2c5.5 0 9.9-4.4 9.9-9.9c.1-2.6-1-5.1-2.8-7m-2.7 14c-1.3.8-2.8 1.3-4.4 1.3c-1.5 0-2.9-.4-4.2-1.1l-.3-.2l-3.1.8l.8-3l-.2-.3c-2.4-4-1.2-9 2.7-11.5S16.6 3.7 19 7.5c2.4 3.9 1.3 9-2.6 11.4"/>
  </symbol>

  <symbol id="telegram" viewBox="0 0 24 24" fill="inherit">
    <path d="M22.265 2.428a2.048 2.048 0 0 0-2.078-.324L2.266 9.339a2.043 2.043 0 0 0 .104 3.818l3.625 1.261l2.02 6.682a.998.998 0 0 0 .119.252c.008.012.019.02.027.033a.988.988 0 0 0 .211.215a.972.972 0 0 0 .07.05a.986.986 0 0 0 .31.136l.013.001l.006.003a1.022 1.022 0 0 0 .203.02l.018-.003a.993.993 0 0 0 .301-.052c.023-.008.042-.02.064-.03a.993.993 0 0 0 .205-.114a250.76 250.76 0 0 1 .152-.129l2.702-2.983l4.03 3.122a2.023 2.023 0 0 0 1.241.427a2.054 2.054 0 0 0 2.008-1.633l3.263-16.017a2.03 2.03 0 0 0-.693-1.97ZM9.37 14.736a.994.994 0 0 0-.272.506l-.31 1.504l-.784-2.593l4.065-2.117Zm8.302 5.304l-4.763-3.69a1.001 1.001 0 0 0-1.353.12l-.866.955l.306-1.487l7.083-7.083a1 1 0 0 0-1.169-1.593L6.745 12.554L3.02 11.191L20.999 4Z"/>
  </symbol>

  <symbol id="mail" viewBox="0 0 24 24" fill="inherit">
    <path d="M19 4H5a3 3 0 0 0-3 3v10a3 3 0 0 0 3 3h14a3 3 0 0 0 3-3V7a3 3 0 0 0-3-3Zm-.41 2l-5.88 5.88a1 1 0 0 1-1.42 0L5.41 6ZM20 17a1 1 0 0 1-1 1H5a1 1 0 0 1-1-1V7.41l5.88 5.88a3 3 0 0 0 4.24 0L20 7.41Z"/>
  </symbol>

  <symbol id="sun" viewBox="0 0 24 24" fill="inherit">
    <path d="m5.64 17l-.71.71a1 1 0 0 0 0 1.41a1 1 0 0 0 1.41 0l.71-.71A1 1 0 0 0 5.64 17ZM5 12a1 1 0 0 0-1-1H3a1 1 0 0 0 0 2h1a1 1 0 0 0 1-1Zm7-7a1 1 0 0 0 1-1V3a1 1 0 0 0-2 0v1a1 1 0 0 0 1 1ZM5.64 7.05a1 1 0 0 0 .7.29a1 1 0 0 0 .71-.29a1 1 0 0 0 0-1.41l-.71-.71a1 1 0 0 0-1.41 1.41Zm12 .29a1 1 0 0 0 .7-.29l.71-.71a1 1 0 1 0-1.41-1.41l-.64.71a1 1 0 0 0 0 1.41a1 1 0 0 0 .66.29ZM21 11h-1a1 1 0 0 0 0 2h1a1 1 0 0 0 0-2Zm-9 8a1 1 0 0 0-1 1v1a1 1 0 0 0 2 0v-1a1 1 0 0 0-1-1Zm6.36-2A1 1 0 0 0 17 18.36l.71.71a1 1 0 0 0 1.41 0a1 1 0 0 0 0-1.41ZM12 6.5a5.5 5.5 0 1 0 5.5 5.5A5.51 5.51 0 0 0 12 6.5Zm0 9a3.5 3.5 0 1 1 3.5-3.5a3.5 3.5 0 0 1-3.5 3.5Z"/>
  </symbol>

  <symbol id="moon" viewBox="0 0 24 24" fill="inherit">
    <path d="M21.64 13a1 1 0 0 0-1.05-.14a8.05 8.05 0 0 1-3.37.73a8.15 8.15 0 0 1-8.14-8.1a8.59 8.59 0 0 1 .25-2A1 1 0 0 0 8 2.36a10.14 10.14 0 1 0 14 11.69a1 1 0 0 0-.36-1.05Zm-9.5 6.69A8.14 8.14 0 0 1 7.08 5.22v.27a10.15 10.15 0 0 0 10.14 10.14a9.79 9.79 0 0 0 2.1-.22a8.11 8.11 0 0 1-7.18 4.32Z"/>
  </symbol>

  <symbol id="about" viewBox="0 0 24 24" fill="inherit">
    <path d="M22 9.67a1 1 0 0 0-.86-.67l-5.69-.83L12.9 3a1 1 0 0 0-1.8 0L8.55 8.16L2.86 9a1 1 0 0 0-.81.68a1 1 0 0 0 .25 1l4.13 4l-1 5.68a1 1 0 0 0 1.47 1.08l5.1-2.67l5.1 2.67a.93.93 0 0 0 .46.12a1 1 0 0 0 .59-.19a1 1 0 0 0 .4-1l-1-5.68l4.13-4A1 1 0 0 0 22 9.67Zm-6.15 4a1 1 0 0 0-.29.88l.72 4.2l-3.76-2a1.06 1.06 0 0 0-.94 0l-3.76 2l.72-4.2a1 1 0 0 0-.29-.88l-3-3l4.21-.61a1 1 0 0 0 .76-.55L12 5.7l1.88 3.82a1 1 0 0 0 .76.55l4.21.61Z"/>
  </symbol>

  <symbol id="skills" viewBox="0 0 24 24" fill="inherit">
    <path d="M10 13H4a1 1 0 0 0-1 1v6a1 1 0 0 0 1 1h6a1 1 0 0 0 1-1v-6a1 1 0 0 0-1-1Zm-1 6H5v-4h4ZM20 3h-6a1 1 0 0 0-1 1v6a1 1 0 0 0 1 1h6a1 1 0 0 0 1-1V4a1 1 0 0 0-1-1Zm-1 6h-4V5h4Zm1 7h-2v-2a1 1 0 0 0-2 0v2h-2a1 1 0 0 0 0 2h2v2a1 1 0 0 0 2 0v-2h2a1 1 0 0 0 0-2ZM10 3H4a1 1 0 0 0-1 1v6a1 1 0 0 0 1 1h6a1 1 0 0 0 1-1V4a1 1 0 0 0-1-1ZM9 9H5V5h4Z"/>
  </symbol>

  <symbol id="education" viewBox="0 0 24 24" fill="inherit">
    <path d="m21.49 10.19l-1-.55l-9-5h-.11a1.06 1.06 0 0 0-.19-.06h-.37a1.17 1.17 0 0 0-.2.06h-.11l-9 5a1 1 0 0 0 0 1.74L4 12.76v4.74a3 3 0 0 0 3 3h8a3 3 0 0 0 3-3v-4.74l2-1.12v2.86a1 1 0 0 0 2 0v-3.44a1 1 0 0 0-.51-.87ZM16 17.5a1 1 0 0 1-1 1H7a1 1 0 0 1-1-1v-3.63l4.51 2.5l.15.06h.09a1 1 0 0 0 .25 0a1 1 0 0 0 .25 0h.09a.47.47 0 0 0 .15-.06l4.51-2.5Zm-5-3.14L4.06 10.5L11 6.64l6.94 3.86Z"/>
  </symbol>

  <symbol id="experience" viewBox="0 0 24 24" fill="inherit">
    <path d="M6.992 14.502a1 1 0 0 0-1 1v1.782a7.972 7.972 0 0 1-2-5.282a7.29 7.29 0 0 1 .052-.88a1 1 0 1 0-1.985-.24a9.173 9.173 0 0 0-.067 1.12a9.964 9.964 0 0 0 2.417 6.5H2.992a1 1 0 1 0 0 2h4a.982.982 0 0 0 .794-.422c.011-.015.026-.027.037-.043c.007-.01.007-.022.013-.032a.966.966 0 0 0 .106-.258a.952.952 0 0 0 .032-.156c.003-.03.018-.057.018-.089v-4a1 1 0 0 0-1-1Zm1.5-8.5H6.709a7.974 7.974 0 0 1 5.283-2a7.075 7.075 0 0 1 .88.053a1 1 0 0 0 .24-1.987a9.227 9.227 0 0 0-1.12-.066a9.964 9.964 0 0 0-6.5 2.417V3.002a1 1 0 0 0-2 0v4a.954.954 0 0 0 .039.195a.969.969 0 0 0 .141.346l.012.017a.973.973 0 0 0 .244.246c.011.008.017.02.028.028c.014.01.03.013.045.021a.958.958 0 0 0 .18.084a.988.988 0 0 0 .261.053c.018 0 .032.01.05.01h4a1 1 0 0 0 0-2Zm11.96 10.804a.967.967 0 0 0-.141-.345l-.011-.017a.973.973 0 0 0-.245-.246c-.011-.008-.016-.02-.028-.028c-.01-.007-.023-.007-.034-.014a1.154 1.154 0 0 0-.41-.136c-.032-.003-.059-.018-.091-.018h-4a1 1 0 0 0 0 2h1.782a7.973 7.973 0 0 1-5.282 2a7.074 7.074 0 0 1-.88-.054a1 1 0 0 0-.24 1.987a9.365 9.365 0 0 0 1.12.067a9.964 9.964 0 0 0 6.5-2.417v1.417a1 1 0 0 0 2 0v-4a.953.953 0 0 0-.04-.195Zm.54-11.304a1 1 0 0 0 0-2h-4a.952.952 0 0 0-.192.039l-.007.001a.968.968 0 0 0-.34.14l-.02.013a.974.974 0 0 0-.245.244c-.008.01-.02.016-.028.027c-.007.01-.007.023-.014.034a1.146 1.146 0 0 0-.136.413c-.003.03-.018.057-.018.089v4a1 1 0 1 0 2 0V6.719a7.975 7.975 0 0 1 2 5.283a7.289 7.289 0 0 1-.053.88a1.001 1.001 0 0 0 .872 1.113a1.03 1.03 0 0 0 .122.007a1 1 0 0 0 .991-.88a9.174 9.174 0 0 0 .068-1.12a9.964 9.964 0 0 0-2.417-6.5Z"/>
  </symbol>

  <symbol id="projects" viewBox="0 0 24 24" fill="inherit">
    <path d="M22.601 2.062a1 1 0 0 0-.713-.713A11.252 11.252 0 0 0 10.47 4.972L9.354 6.296L6.75 5.668a2.777 2.777 0 0 0-3.387 1.357l-2.2 3.9a1 1 0 0 0 .661 1.469l3.073.659a13.42 13.42 0 0 0-.555 2.434a1 1 0 0 0 .284.836l3.1 3.1a1 1 0 0 0 .708.293a.838.838 0 0 0 .086-.004a12.169 12.169 0 0 0 2.492-.49l.644 3.004a1 1 0 0 0 1.469.661l3.905-2.202a3.035 3.035 0 0 0 1.375-3.304l-.668-2.76l1.237-1.137A11.204 11.204 0 0 0 22.6 2.062ZM3.572 10.723l1.556-2.76a.826.826 0 0 1 1.07-.375l1.718.416l-.65.772a13.095 13.095 0 0 0-1.59 2.398Zm12.47 8.222l-2.715 1.532l-.43-2.005a11.34 11.34 0 0 0 2.414-1.62l.743-.683l.404 1.664a1.041 1.041 0 0 1-.416 1.112Zm1.615-6.965l-3.685 3.386a9.773 9.773 0 0 1-5.17 2.304l-2.405-2.404a10.932 10.932 0 0 1 2.401-5.206l1.679-1.993a.964.964 0 0 0 .078-.092L11.99 6.27a9.278 9.278 0 0 1 8.81-3.12a9.218 9.218 0 0 1-3.143 8.829Zm-.923-6.164a1.5 1.5 0 1 0 1.5 1.5a1.5 1.5 0 0 0-1.5-1.5Z"/>
  </symbol>

  <symbol id="responsibility" viewBox="0 0 24 24" fill="inherit">
    <path d="M21 18h-2v-3a1 1 0 0 0-1-1h-5v-2.71l1.13.59a1 1 0 0 0 1.45-1.05l-.4-2.37l1.72-1.69a1 1 0 0 0 .26-1a1 1 0 0 0-.81-.68L14 4.72l-1.1-2.16a1 1 0 0 0-1.8 0L10 4.72l-2.39.35a1 1 0 0 0-.81.68a1 1 0 0 0 .26 1l1.76 1.71l-.4 2.37a1 1 0 0 0 1.45 1.05l1.13-.59V14H6a1 1 0 0 0-1 1v3H3a1 1 0 0 0-1 1v2a1 1 0 0 0 2 0v-1h4v1a1 1 0 0 0 2 0v-2a1 1 0 0 0-1-1H7v-2h10v2h-2a1 1 0 0 0-1 1v2a1 1 0 0 0 2 0v-1h4v1a1 1 0 0 0 2 0v-2a1 1 0 0 0-1-1Zm-9-9.37a1 1 0 0 0-.47.12l-.8.42l.15-.9a1 1 0 0 0-.29-.88l-.65-.64l.9-.13a1 1 0 0 0 .76-.54l.4-.82l.4.82a1 1 0 0 0 .76.54l.9.13l-.65.64a1 1 0 0 0-.29.88l.15.9l-.8-.42a1 1 0 0 0-.47-.12Z"/>
  </symbol>

  <symbol id="communications" viewBox="0 0 24 24" fill="inherit">
    <path d="m21.78 11.88l-2-2.5A1 1 0 0 0 19 9h-6V3a1 1 0 0 0-2 0v1H5a1 1 0 0 0-.78.38l-2 2.5a1 1 0 0 0 0 1.24l2 2.5A1 1 0 0 0 5 11h6v9H9a1 1 0 0 0 0 2h6a1 1 0 0 0 0-2h-2v-4h6a1 1 0 0 0 .78-.38l2-2.5a1 1 0 0 0 0-1.24ZM11 9H5.48l-1.2-1.5L5.48 6H11Zm7.52 5H13v-3h5.52l1.2 1.5Z"/>
  </symbol>

  <symbol id="purposefulness" viewBox="0 0 24 24" fill="inherit">
    <path d="M21 11h-1.07A8 8 0 0 0 13 4.07V3a1 1 0 0 0-2 0v1.07A8 8 0 0 0 4.07 11H3a1 1 0 0 0 0 2h1.07A8 8 0 0 0 11 19.93V21a1 1 0 0 0 2 0v-1.07A8 8 0 0 0 19.93 13H21a1 1 0 0 0 0-2Zm-4 2h.91A6 6 0 0 1 13 17.91V17a1 1 0 0 0-2 0v.91A6 6 0 0 1 6.09 13H7a1 1 0 0 0 0-2h-.91A6 6 0 0 1 11 6.09V7a1 1 0 0 0 2 0v-.91A6 6 0 0 1 17.91 11H17a1 1 0 0 0 0 2Zm-5-2a1 1 0 1 0 1 1a1 1 0 0 0-1-1Z"/>
  </symbol>

  <symbol id="detail" viewBox="0 0 24 24" fill="inherit">
    <path d="M21.71 20.29L18 16.61A9 9 0 1 0 16.61 18l3.68 3.68a1 1 0 0 0 1.42 0a1 1 0 0 0 0-1.39ZM11 18a7 7 0 1 1 7-7a7 7 0 0 1-7 7Z"/>
  </symbol>

  <symbol id="professional" viewBox="0 0 24 24" fill="inherit">
    <path d="M14.55 12.22a4.92 4.92 0 0 0 1.7-3.72a5 5 0 0 0-10 0A4.92 4.92 0 0 0 8 12.22a8 8 0 0 0-4.7 7.28a1 1 0 0 0 2 0a6 6 0 0 1 12 0a1 1 0 0 0 2 0a8 8 0 0 0-4.75-7.28Zm-3.3-.72a3 3 0 1 1 3-3a3 3 0 0 1-3 3Zm8.5-5a1 1 0 0 0-1 1v2a1 1 0 0 0 2 0v-2a1 1 0 0 0-1-1ZM19 11.79a1.05 1.05 0 0 0-.29.71a1 1 0 0 0 .29.71a1.15 1.15 0 0 0 .33.21a.94.94 0 0 0 .76 0a.9.9 0 0 0 .54-.54a.84.84 0 0 0 .08-.38a1 1 0 0 0-1.71-.71Z"/>
  </symbol>

  <symbol id="os" viewBox="0 0 24 24" fill="inherit">
    <path d="M10 13H3a1 1 0 0 0-1 1v7a1 1 0 0 0 1 1h7a1 1 0 0 0 1-1v-7a1 1 0 0 0-1-1Zm-1 7H4v-5h5ZM21 2h-7a1 1 0 0 0-1 1v7a1 1 0 0 0 1 1h7a1 1 0 0 0 1-1V3a1 1 0 0 0-1-1Zm-1 7h-5V4h5Zm1 4h-7a1 1 0 0 0-1 1v7a1 1 0 0 0 1 1h7a1 1 0 0 0 1-1v-7a1 1 0 0 0-1-1Zm-1 7h-5v-5h5ZM10 2H3a1 1 0 0 0-1 1v7a1 1 0 0 0 1 1h7a1 1 0 0 0 1-1V3a1 1 0 0 0-1-1ZM9 9H4V4h5Z"/>
  </symbol>

  <symbol id="network" viewBox="0 0 24 24" fill="inherit">
    <path d="M21 18.5h-6.18A3 3 0 0 0 13 16.68V13.5h3.17a4.33 4.33 0 0 0 1.3-8.5A6 6 0 0 0 6.06 6.63A3.5 3.5 0 0 0 7 13.5h4v3.18a3 3 0 0 0-1.82 1.82H3a1 1 0 0 0 0 2h6.18a3 3 0 0 0 5.64 0H21a1 1 0 0 0 0-2Zm-14-7a1.5 1.5 0 0 1 0-3a1 1 0 0 0 1-1a4 4 0 0 1 7.79-1.29a1 1 0 0 0 .78.67a2.31 2.31 0 0 1 1.93 2.29a2.34 2.34 0 0 1-2.33 2.33Zm5 9a1 1 0 1 1 1-1a1 1 0 0 1-1 1Z"/>
  </symbol>

  <symbol id="code" viewBox="0 0 24 24" fill="inherit">
    <path d="M6 6a2 2 0 0 1 2-2a1 1 0 0 0 0-2a4 4 0 0 0-4 4v3a2 2 0 0 1-2 2a1 1 0 0 0 0 2a2 2 0 0 1 2 2v3a4 4 0 0 0 4 4a1 1 0 0 0 0-2a2 2 0 0 1-2-2v-3a4 4 0 0 0-1.38-3A4 4 0 0 0 6 9Zm16 5a2 2 0 0 1-2-2V6a4 4 0 0 0-4-4a1 1 0 0 0 0 2a2 2 0 0 1 2 2v3a4 4 0 0 0 1.38 3A4 4 0 0 0 18 15v3a2 2 0 0 1-2 2a1 1 0 0 0 0 2a4 4 0 0 0 4-4v-3a2 2 0 0 1 2-2a1 1 0 0 0 0-2Z"/>
  </symbol>

  <symbol id="repair" viewBox="0 0 24 24" fill="inherit">
    <path d="m21.71 15.58l-4.52-4.51a6.85 6.85 0 0 0 .14-1.4A7.67 7.67 0 0 0 6.42 2.72a1 1 0 0 0-.57.74a1 1 0 0 0 .28.88l4.35 4.34l-1.8 1.8l-4.34-4.35a1 1 0 0 0-.88-.27a1 1 0 0 0-.74.56a7.67 7.67 0 0 0 7 10.91a6.85 6.85 0 0 0 1.4-.14l4.51 4.52a1 1 0 0 0 1.42 0a1 1 0 0 0 0-1.42l-4.9-4.9a1 1 0 0 0-.95-.26a5.88 5.88 0 0 1-1.48.2A5.67 5.67 0 0 1 4 9.67a6 6 0 0 1 .08-1L8 12.6a1 1 0 0 0 1.42 0l3.18-3.21a1 1 0 0 0 0-1.39L8.71 4.08a6.12 6.12 0 0 1 1-.08a5.67 5.67 0 0 1 5.66 5.67a5.88 5.88 0 0 1-.2 1.48a1 1 0 0 0 .26.95l4.9 4.9a1 1 0 0 0 1.42-1.42Z"/>
  </symbol>

  <symbol id="system" viewBox="0 0 24 24" fill="inherit">
    <path d="M8 6h3a1 1 0 0 0 0-2H8a1 1 0 0 0 0 2Zm8 0a1 1 0 1 0-1-1a1 1 0 0 0 1 1Zm0 4a1 1 0 1 0 1 1a1 1 0 0 0-1-1Zm5 9h-6.18A3 3 0 0 0 13 17.18V15h4a3 3 0 0 0 3-3v-2a3 3 0 0 0-.78-2A3 3 0 0 0 20 6V4a3 3 0 0 0-3-3H7a3 3 0 0 0-3 3v2a3 3 0 0 0 .78 2A3 3 0 0 0 4 10v2a3 3 0 0 0 3 3h4v2.18A3 3 0 0 0 9.18 19H3a1 1 0 0 0 0 2h6.18a3 3 0 0 0 5.64 0H21a1 1 0 0 0 0-2ZM6 4a1 1 0 0 1 1-1h10a1 1 0 0 1 1 1v2a1 1 0 0 1-1 1H7a1 1 0 0 1-1-1Zm1 9a1 1 0 0 1-1-1v-2a1 1 0 0 1 1-1h10a1 1 0 0 1 1 1v2a1 1 0 0 1-1 1Zm5 8a1 1 0 1 1 1-1a1 1 0 0 1-1 1Zm-1-11H8a1 1 0 0 0 0 2h3a1 1 0 0 0 0-2Z"/>
  </symbol>

  <symbol id="editor" viewBox="0 0 24 24" fill="inherit">
    <path d="M21.9 9.6c-.2-.5-.8-.7-1.3-.5l-2.9 1.4l-2.1-2.1l-2.1-2.1l1.4-2.9c.2-.5 0-1.1-.5-1.3c-.5-.2-1.1 0-1.3.5l-1.5 3.1l-6.4 1c-.4.1-.7.4-.8.8L2 19.1c-.1.3 0 .7.3.9L4 21.7c.2.2.5.3.7.3h.2l11.6-2.4c.4-.1.7-.4.8-.8l1-6.4l3.1-1.5c.5-.2.7-.8.5-1.3zm-6.5 8.2l-9.8 2l3.7-3.7c1.5.7 3.3.1 4-1.4s.1-3.3-1.4-4c-1.1-.5-2.5-.3-3.4.6c-.9.9-1.1 2.3-.6 3.4l-3.7 3.7l2-9.8l5.8-1l2.2 2.2l2.2 2.2l-1 5.8zm-5.8-4.4c0-.3.1-.5.3-.7c.4-.4 1-.4 1.4 0c.4.4.4 1 0 1.4c-.4.4-1 .4-1.4 0c-.2-.2-.3-.5-.3-.7z"/>
  </symbol>

  <symbol id="school" viewBox="0 0 24 24" fill="inherit">
    <path d="m21.49 10.19l-1-.55l-9-5h-.11a1.06 1.06 0 0 0-.19-.06h-.37a1.17 1.17 0 0 0-.2.06h-.11l-9 5a1 1 0 0 0 0 1.74L4 12.76v4.74a3 3 0 0 0 3 3h8a3 3 0 0 0 3-3v-4.74l2-1.12v2.86a1 1 0 0 0 2 0v-3.44a1 1 0 0 0-.51-.87ZM16 17.5a1 1 0 0 1-1 1H7a1 1 0 0 1-1-1v-3.63l4.51 2.5l.15.06h.09a1 1 0 0 0 .25 0a1 1 0 0 0 .25 0h.09a.47.47 0 0 0 .15-.06l4.51-2.5Zm-5-3.14L4.06 10.5L11 6.64l6.94 3.86Z"/>
  </symbol>

  <symbol id="college" viewBox="0 0 24 24" fill="inherit">
    <path d="M21.38 5.76a1 1 0 0 0-.47-.61l-5.2-3a1 1 0 0 0-1.37.36L12 6.57L9.66 2.51a1 1 0 0 0-1.37-.36l-5.2 3a1 1 0 0 0-.47.61a1 1 0 0 0 .1.75l4 6.83A5.91 5.91 0 0 0 6 16a6 6 0 1 0 11.34-2.72l3.9-6.76a1 1 0 0 0 .14-.76ZM5 6.38l3.46-2L11.68 10A5.94 5.94 0 0 0 8 11.58ZM12 20a4 4 0 0 1-4-4a4 4 0 0 1 4-4a4 4 0 1 1 0 8Zm4-8.45a5.9 5.9 0 0 0-1.86-1.15l-.98-1.83l2.42-4.19l3.46 2Z"/>
  </symbol>

  <symbol id="monitor" viewBox="0 0 24 24" fill="inherit">
    <path d="M19 3H5a3 3 0 0 0-3 3v8a3 3 0 0 0 3 3h6v2H7a1 1 0 0 0 0 2h10a1 1 0 0 0 0-2h-4v-2h6a3 3 0 0 0 3-3V6a3 3 0 0 0-3-3Zm1 11a1 1 0 0 1-1 1H5a1 1 0 0 1-1-1V6a1 1 0 0 1 1-1h14a1 1 0 0 1 1 1Z"/>
  </symbol>

  <symbol id="print-line" viewBox="0 0 24 24" fill="inherit">
    <path d="M7 10a1 1 0 1 0 1 1a1 1 0 0 0-1-1Zm12-4h-1V3a1 1 0 0 0-1-1H7a1 1 0 0 0-1 1v3H5a3 3 0 0 0-3 3v6a3 3 0 0 0 3 3h1v3a1 1 0 0 0 1 1h10a1 1 0 0 0 1-1v-3h1a3 3 0 0 0 3-3V9a3 3 0 0 0-3-3ZM8 4h8v2H8Zm8 16H8v-4h8Zm4-5a1 1 0 0 1-1 1h-1v-1a1 1 0 0 0-1-1H7a1 1 0 0 0-1 1v1H5a1 1 0 0 1-1-1V9a1 1 0 0 1 1-1h14a1 1 0 0 1 1 1Z"/>
  </symbol>

  <symbol id="freelance" viewBox="0 0 24 24" fill="inherit">
    <path d="M13.6 10.9c.1.1.2.1.4.1h7c.6 0 1-.4 1-1c0-.2 0-.3-.1-.4l-3.5-7c-.3-.5-.9-.7-1.4-.4c-.1.1-.3.2-.4.4l-3.5 7c-.2.4 0 1 .5 1.3zm3.9-5.7L19.4 9h-3.8l1.9-3.8zM6.5 2C4 2 2 4 2 6.5S4 11 6.5 11S11 9 11 6.5S9 2 6.5 2zm0 7C5.1 9 4 7.9 4 6.5S5.1 4 6.5 4S9 5.1 9 6.5S7.9 9 6.5 9zm4.2 4.3c-.4-.4-1-.4-1.4 0l-2.8 2.8l-2.8-2.8c-.4-.4-1-.4-1.4 0c-.4.4-.4 1 0 1.4l2.8 2.8l-2.8 2.8c-.4.4-.4 1 0 1.4s1 .4 1.4 0l2.8-2.8l2.8 2.8c.4.4 1 .4 1.4 0c.4-.4.4-1 0-1.4l-2.8-2.8l2.8-2.8c.4-.4.4-1 0-1.4zM21 13h-7c-.6 0-1 .4-1 1v7c0 .6.4 1 1 1h7c.6 0 1-.4 1-1v-7c0-.6-.4-1-1-1zm-1 7h-5v-5h5v5z"/>
  </symbol>

  <symbol id="web-site" viewBox="0 0 24 24" fill="inherit">
    <path d="M4.5 10H10a3 3 0 0 0 1.07-5.8a4 4 0 0 0-7.48 1A2.5 2.5 0 0 0 4.5 10Zm0-3a1 1 0 0 0 1-1a2 2 0 0 1 3.89-.64a1 1 0 0 0 .78.66A1 1 0 0 1 11 7a1 1 0 0 1-1 1H4.5a.5.5 0 0 1 0-1ZM19 2h-5a1 1 0 0 0 0 2h5a1 1 0 0 1 1 1v7H3a1 1 0 0 0-1 1v2a3 3 0 0 0 3 3h3v2H5a1 1 0 0 0 0 2h14a1 1 0 0 0 0-2h-3v-2h3a3 3 0 0 0 3-3V5a3 3 0 0 0-3-3Zm-5 18h-4v-2h4Zm6-5a1 1 0 0 1-1 1H5a1 1 0 0 1-1-1v-1h16Z"/>
  </symbol>

  <symbol id="back-top" viewBox="0 0 24 24" fill="inherit">
    <path d="M12.71 12.54a1 1 0 0 0-1.42 0l-3 3A1 1 0 0 0 9.71 17L12 14.66L14.29 17a1 1 0 0 0 1.42 0a1 1 0 0 0 0-1.42Zm-3-1.08L12 9.16l2.29 2.3a1 1 0 0 0 1.42 0a1 1 0 0 0 0-1.42l-3-3a1 1 0 0 0-1.42 0l-3 3a1 1 0 0 0 1.42 1.42Z"/>
  </symbol>

  <symbol id="info" viewBox="0 0 24 24" fill="inherit">
    <path d="M12 14a1.25 1.25 0 1 0 1.25 1.25A1.25 1.25 0 0 0 12 14Zm0-1.5a1 1 0 0 0 1-1v-3a1 1 0 0 0-2 0v3a1 1 0 0 0 1 1ZM12 2a10 10 0 1 0 10 10A10.011 10.011 0 0 0 12 2Zm0 18a8 8 0 1 1 8-8a8.01 8.01 0 0 1-8 8Z"/>
  </symbol>
</svg>
